<svg width="34" height="34" fill="none" xmlns="http://www.w3.org/2000/svg"><path fill-rule="evenodd" clip-rule="evenodd" d="M33.667 17c0 9.2-7.484 16.667-16.667 16.667l-.466-.007C7.549 33.413.334 26.044.334 17 .333 7.817 7.8.333 17 .333 26.183.333 33.667 7.817 33.667 17ZM13.7 10.333c-.483.5-.483 1.284.017 1.767l4.917 4.9-4.917 4.9c-.5.483-.5 1.283-.017 1.767.5.5 1.284.5 1.767 0l5.816-5.784a1.249 1.249 0 0 0 0-1.766l-5.816-5.784a1.172 1.172 0 0 0-.867-.366c-.333 0-.65.116-.9.366Z" fill="#141024"/></svg>